<?xml version="1.0" encoding="utf-8"?>
<!-- Generator: Adobe Illustrator 19.0.0, SVG Export Plug-In . SVG Version: 6.00 Build 0)  -->
<svg version="1.1" id="Layer_1" xmlns="http://www.w3.org/2000/svg" xmlns:xlink="http://www.w3.org/1999/xlink" x="0px" y="0px"
	 viewBox="0 0 500 500" style="enable-background:new 0 0 500 500;" xml:space="preserve">
<g id="XMLID_1_">
	<path id="path2567" d="M267.3,70v295.6h16.5v-69.3l9-9.6l78.3,78.9h21.5l-89.2-90.1l70.8-73h-21.2L283.8,274V70H267.3"/>
	<path id="path2569" d="M150.1,389.4c0,0-5.4-4.5-12.4-4.5c0,0-8.2,0-14,6c0,0-5.8,6-5.8,14.2c0,0,0,8.2,5.8,14.2
		c0,0,5.8,5.8,14,5.8c0,0,6.9,0,12.4-4.3l2.6,2.6c0,0-6.6,5.4-15,5.4c0,0-9.7,0-16.7-7.1c0,0-6.9-6.9-6.9-16.7c0,0,0-9.7,6.9-16.7
		c0,0,6.9-7.1,16.7-7.1c0,0,8.4,0,15,5.2L150.1,389.4"/>
	<path id="path2573" d="M169,398.2c-6.4,0-10.9,4.5-10.9,4.5c-4.5,4.5-4.5,10.9-4.5,10.9c0,6.4,4.5,10.9,4.5,10.9
		c4.5,4.5,10.9,4.5,10.9,4.5c7.3,0,12.2-6.2,12.2-6.2v5.4h3.4v-29h-3.4v5.1C176.5,398.2,169,398.2,169,398.2z M169,401.5
		c4.9,0,8.4,3.4,8.4,3.4c3.6,3.6,3.6,8.6,3.6,8.6c0,4.9-3.6,8.4-3.6,8.4c-3.6,3.6-8.4,3.6-8.4,3.6c-5.1,0-8.4-3.6-8.4-3.6
		c-3.6-3.6-3.6-8.4-3.6-8.4c0-5.1,3.6-8.6,3.6-8.6C163.9,401.5,169,401.5,169,401.5z"/>
	<path id="path2575" d="M232.9,385.8c0,0-2.1,0-2.1-2.1c0,0,0-2.2,2.1-2.2c0,0,2.2,0,2.2,2.2C235.1,383.7,235.1,385.8,232.9,385.8"
		/>
	<path id="path2577" d="M194.7,381.5v46.6h-3.6v-46.6H194.7"/>
	<path id="path2579" d="M212.4,421.8l10.3-22.7h3.7l-14,30.9L198,399.1h3.9L212.4,421.8"/>
	<path id="path2581" d="M244.3,401.9c0,0,2.8-3.7,8.2-3.7c0,0,4.9,0,8.2,3.4c0,0,3.4,3.4,3.4,8.2v18.4h-3.4v-18.4c0,0,0-3.6-2.4-6
		c0,0-2.2-2.4-5.8-2.4c0,0-3.4,0-5.8,2.2c0,0-2.4,2.4-2.4,6.2v18.4h-3.4v-29h3.4V401.9"/>
	<path id="path2583" d="M234.5,399.1v29h-3.4v-29H234.5"/>
	<path id="path2585" d="M308.9,381.7l-18.5,20l18.4,26.4h-4.3l-16.5-23.8l-3.4,3.6v20.2h-3.4v-46.6h3.4v21.2l19.5-21H308.9"/>
	<path id="path2587" d="M317.5,381.5v46.6H314v-46.6H317.5"/>
	<path id="path2589" d="M338.3,398.2c-6.4,0-10.9,4.5-10.9,4.5c-4.3,4.3-4.3,10.9-4.3,10.9c0,6.4,4.3,10.7,4.3,10.7
		c4.5,4.5,10.9,4.5,10.9,4.5c9.7,0,13.9-8.6,13.9-8.6l-3-1.3c-3.4,6.6-10.9,6.6-10.9,6.6c-4.9,0-8.2-3.4-8.2-3.4
		c-3.6-3.4-3.6-8.2-3.6-8.2h27.2v-0.2c0-6.6-4.5-10.9-4.5-10.9C344.7,398.2,338.3,398.2,338.3,398.2z M338.3,401.3
		c4.1,0,7.3,2.6,7.3,2.6c3.2,2.4,4.3,6.2,4.3,6.2h-23c1.1-3.7,4.1-6.2,4.1-6.2C334.4,401.3,338.3,401.3,338.3,401.3z"/>
	<path id="path2593" d="M358.9,383.7c0,0,0-2.2,2.1-2.2c0,0,2.1,0,2.1,2.2c0,0,0,2.1-2.1,2.1C361,385.8,358.9,385.8,358.9,383.7"/>
	<path id="path2595" d="M372.8,399.1v2.8c0,0,2.6-3.7,8.2-3.7c0,0,4.9,0,8.2,3.4c0,0,3.4,3.4,3.4,8.2v18.4h-3.6v-18.4
		c0,0,0-3.6-2.2-6c0,0-2.4-2.4-5.8-2.4c0,0-3.6,0-5.8,2.2c0,0-2.4,2.4-2.4,6.2v18.4h-3.6v-29H372.8"/>
	<path id="path2597" d="M362.7,399.1v29h-3.4v-29H362.7"/>
	<path id="path2599" d="M130.8,224.7c0,0-23.4,24-23.4,58.6c0,0,0,35.2,23.2,59.2c0,0,23.2,24.2,58.4,24.2c0,0,32.6,0,57.7-21.9
		l-10.5-10.5c0,0-21.4,18-48,18c0,0-27.5,0-46.8-20.8c0,0-18.5-20.4-18.5-48.1c0,0,0-27.5,18.7-47.6c0,0,19.3-20.6,47-20.6
		c0,0,25.8,0,46.1,16.5l9.9-10.3v-0.9c0,0-23-19.7-55.3-19.7C189.4,200.7,154.4,200.7,130.8,224.7"/>
</g>
</svg>
