<?xml version="1.0" encoding="utf-8"?>
<!-- Generator: Adobe Illustrator 24.2.3, SVG Export Plug-In . SVG Version: 6.00 Build 0)  -->
<svg version="1.1" id="Layer_1" xmlns="http://www.w3.org/2000/svg" xmlns:xlink="http://www.w3.org/1999/xlink" x="0px" y="0px"
	 width="595.3px" height="305.1px" viewBox="0 0 595.3 305.1" style="enable-background:new 0 0 595.3 305.1;" xml:space="preserve"
	>
<g id="Layer_x0020_1">
	<path d="M42.2,169.5v74.2c0,0,6.3,1.2,9.6-4.5c1.8-3.3,1.2-9,1.2-9v-50c0,0,0.3-4.2-0.9-6.3C48.7,168.2,42.1,169.5,42.2,169.5
		L42.2,169.5z M0,297V149.7h68.6c0,0,12.6-1.5,21.3,4.5c6.3,4.2,5.7,14.7,5.7,14.7L95.2,244c0,0,0.9,9.6-2.7,14.1
		c-5.1,6-12.6,4.5-12.6,4.5H41.6V297H0L0,297z"/>
	<path d="M491,288c2.4,0,4.5-0.3,4.5-3c0-2.4-2.1-2.7-4.2-2.7h-3.6v5.7H491L491,288z M487.7,298.1h-3v-18.3h7.2
		c4.2,0,6.3,1.5,6.3,5.1c0,3.3-2.1,4.8-4.8,5.1l5.4,8.1h-3.3l-4.8-7.8h-3L487.7,298.1L487.7,298.1L487.7,298.1z M477.8,288.9
		c0,7.5,6,13.2,13.2,13.2c6.9,0,12.9-5.7,12.9-13.2c0-7.2-5.7-12.6-12.9-12.6S477.8,281.7,477.8,288.9z M474.7,288.9
		c0-9,7.5-15.6,16.2-15.6s15.9,6.6,15.9,15.6c0,9.3-7.2,16.2-15.9,16.2C482.2,305,474.7,298.1,474.7,288.9z"/>
	<path d="M329.8,61.4c-5.4,3-23-3.3-25.5-1.5c-8.7,4.8-17.4,14.7-9,24c1.8,1.8,9.9,3,12.3,1.8c1.8-0.9,0-5.7,0.9-7.2
		c3.3-4.5,11.1,2.4,14.4,3.6c12,5.1,23.4,8.4,34.4,5.4c2.7-0.9,9.3-7.5,12.3-6.9c3,0.3,9.6,8.1,12,10.2c12,10.5,27.6,22.5,44.9,26.1
		c3.3,0.6,31.1,1.2,34.4,2.4c16.5,7.2,15.6,14.1,23,29.9c5.1,11.4,6,16.5,14.7,27.8c2.4,3,26.6,24.9,28.4,28.4
		c1.2,2.4,0,11.4,0,14.7c0,3.9,2.1,15.3,8.1,20.7c1.8,1.8,8.7,3.9,9.9,1.5c3.6-6-0.3-38.6-3-48.5c-0.9-3.3-10.2-7.8-12-10.8
		c-3.3-5.4-5.4-47-6.9-53c-2.1-9.6-9.9-12.9-8.7-16.5c0.9-4.2,15.6-13.5,18.9-16.8c1.2-0.9,8.1-19.8,8.7-21.3
		c5.1-12.9,9.9-22.2,26.6-32.3c11.4-7.2,29.7-14.1,26.1-32.3c-0.6-2.1-7.5-4.8-9.6-5.1c-22.5-5.7-37.7,29.3-44,44.6
		c-6.3,15-16.2,39.5-31.1,45.8c-3.6,1.2-16.5,1.5-20.4,1.5c-28.1-2.1-43.7-20.7-62.9-37.1c-15.6-13.8-45.5-38-63.2-43.7
		c-3.9-1.2-18-1.5-21.3-3.3C340,12.3,337,2.4,335.5,0c-0.6,0.9-3,6.6-4.2,7.2c-1.5,0.3-6.6,0.3-9.9-2.4c-1.2-1.2-1.5,4.8-2.1,5.1
		c-1.2,0.3-18.6,19.5-18.9,19.8c-4.8,7.8,0,15,9.6,18.9c2.4,0.9,11.1-1.5,13.8-0.9c1.5,0.3,5.1,3,6,4.5
		C330.4,53,334.9,58.9,329.8,61.4L329.8,61.4z"/>
	<path d="M356.5,166.2c0,0,0.6-5.7-2.7-9.9c-2.7-3.3-7.5-3.9-7.5-3.9h-23l-3.9,2.7l-5.1-2.7h-53.6l-3.9,3l-4.8-3h-27.8
		c0,0-3.9-0.9-9,3.9c-5.1,5.4-5.4,9.6-5.4,9.6v133.2h41.3V180.3c0,0-0.3-9,6-9c6.3,0,6,9,6,9v118.9H303V180.3c0,0-0.6-9,6-9
		s6.3,9.3,6.3,9.3v118.9h41.3L356.5,166.2L356.5,166.2z"/>
	<path d="M410.1,248.5l11.1,0.5v-71.7c0,0-0.6-5.7-5.7-5.7s-5.4,5.4-5.4,5.4V248.5L410.1,248.5z M367.6,299.4V166.2
		c0,0,0-6.3,3-10.5c3.3-4.2,10.5-3.3,10.5-3.3h68.3c0,0,4.5-0.6,8.7,3c4.5,3.9,3.9,11.1,3.9,11.1v132.9h-40.7v-34.7h-11.4v34.7
		L367.6,299.4L367.6,299.4z"/>
	<path d="M198.1,152.4H158V268c0,0,1.2,9.6-4.8,9.6c-7.2-0.3-5.7-9.6-5.7-9.6l-0.3-115.6h-41.3v131.7c0,0,1.2,8.4,2.7,10.2
		c4.8,5.4,12.3,4.2,12.3,4.2h64.4c0,0,8.1,0,10.8-3.6c2.4-3.3,2.1-11.4,2.1-11.4L198.1,152.4L198.1,152.4z"/>
</g>
</svg>
